# xmcd CD database file
#
# Track frame offsets:
#	182
#	11530
#	23997
#	41352
#	54652
#	71742
#	85407
#	97917
#	116645
#	130087
#
# Disc length: 1938 seconds
#
# Revision: 20
# Processed by: cddbd v1.5.2PL0 Copyright (c) Steve Scherf et al.
# Submitted via: jetAudio 5
#
DISCID=7c07900a,7d07900a
DTITLE=Tim McGraw - Not A Moment Too Soon
DYEAR=1994
DGENRE=Country
TTITLE0=It Doesn't Get Any Countrier Than This
TTITLE1=Give It To Me Strait
TTITLE2=Wouldn't Want It Any Other Way
TTITLE3=Down On The Farm
TTITLE4=Not A Moment Too Soon
TTITLE5=Indian Outlaw
TTITLE6=Refried Dreams
TTITLE7=Don't Take The Girl
TTITLE8=40 Days And 40 Nights
TTITLE9=Ain't That Just Like A Dream
EXTD=YEAR: 1994 Ripped by PiXeL LoRd
EXTT0=
EXTT1=
EXTT2=
EXTT3=
EXTT4=
EXTT5=
EXTT6=
EXTT7=
EXTT8=
EXTT9=
PLAYORDER=
